<svg id="Layer_1" data-name="Layer 1" xmlns="http://www.w3.org/2000/svg" viewBox="0 0 800 800"><defs><style>.cls-1{fill:#f9595f;}</style></defs><path class="cls-1" d="M399,740.63h0Z"/><path class="cls-1" d="M399.5,252.15H399v-.1A1.53,1.53,0,0,0,399.5,252.15Z"/><path class="cls-1" d="M428,730.11c-12.12,8.07-23.46,10.34-27.95,10.52h-1c-4.49-.18-15.83-2.45-27.95-10.52-13.16-8.77-505.28-307.9-305.31-543.45,5.32-5.2,36.35-42.57,80.65-54.37,159.75-42.55,236.94,111,243.08,115.35a14.31,14.31,0,0,0,9.53,4.52h1a14.31,14.31,0,0,0,9.53-4.52c6.14-4.39,83.33-157.9,243.08-115.35,44.3,11.8,75.33,49.17,80.65,54.37C933.23,422.21,441.11,721.34,428,730.11Z"/><path class="cls-1" d="M399.5,252.15a1.53,1.53,0,0,0,.5-.09v.1Z"/><path class="cls-1" d="M399.8,740.64h0Z"/></svg>